<?xml version="1.0" standalone="no"?>
<!DOCTYPE svg PUBLIC "-//W3C//DTD SVG 20010904//EN"
 "http://www.w3.org/TR/2001/REC-SVG-20010904/DTD/svg10.dtd">
<svg version="1.0" xmlns="http://www.w3.org/2000/svg"
 width="1024.000000pt" height="1024.000000pt" viewBox="0 0 1024.000000 1024.000000"
 preserveAspectRatio="xMidYMid meet">

<g transform="translate(0.000000,1024.000000) scale(0.100000,-0.100000)"
fill="#000000" stroke="none">
<path d="M9705 9850 c-11 -5 -33 -9 -48 -9 -37 -1 -42 -20 -18 -67 41 -79 39
-91 -35 -174 -36 -41 -72 -87 -80 -102 -8 -16 -19 -28 -25 -28 -6 0 -34 -15
-62 -34 -80 -53 -103 -62 -123 -46 -11 10 -14 23 -10 42 20 97 23 88 -31 137
-40 37 -51 54 -57 89 -5 35 -4 42 10 42 13 0 15 6 10 30 -5 26 -2 32 19 40 14
5 25 12 25 14 0 6 -160 -3 -170 -9 -9 -5 -129 -23 -210 -31 -25 -2 -72 -9
-105 -15 -33 -6 -100 -16 -150 -24 -113 -17 -137 -25 -125 -44 7 -12 11 -12
24 -2 9 7 22 11 30 8 7 -3 18 -1 24 5 8 8 13 7 18 -5 8 -23 -4 -37 -29 -33
-12 2 -29 -2 -38 -7 -23 -14 -49 -2 -49 24 0 21 -3 22 -75 16 -41 -4 -94 -11
-118 -16 -23 -6 -103 -20 -177 -31 -149 -24 -160 -28 -188 -68 -38 -52 -41
-96 -43 -567 -2 -413 0 -464 15 -500 20 -47 43 -74 72 -85 12 -5 93 -25 180
-45 88 -20 225 -52 307 -71 170 -39 167 -39 167 -19 0 8 5 15 10 15 6 0 10 -5
10 -12 0 -6 3 -9 6 -5 3 3 18 1 32 -4 17 -7 29 -6 36 1 15 15 26 12 20 -5 -7
-17 39 -39 65 -30 9 2 28 -2 44 -10 15 -7 27 -10 27 -4 0 5 7 9 15 9 8 0 15
-5 15 -11 0 -5 5 -7 12 -3 6 4 16 0 23 -9 7 -10 26 -20 44 -23 25 -5 31 -3 31
10 0 10 5 14 10 11 6 -4 8 -10 5 -15 -3 -5 -1 -11 5 -15 5 -3 10 1 10 9 0 9 5
16 10 16 6 0 10 -7 10 -15 0 -8 3 -16 8 -16 43 -7 62 -6 62 2 0 5 7 9 15 9 9
0 12 -6 9 -15 -4 -9 0 -15 9 -15 9 0 18 8 20 18 4 14 6 14 12 -5 4 -13 12 -23
19 -23 6 0 21 -3 34 -6 18 -5 21 -3 16 10 -3 9 -1 16 4 16 6 0 12 -8 14 -17 2
-13 29 -22 118 -40 63 -13 155 -29 204 -35 l89 -12 23 27 c12 14 31 52 41 84
17 55 18 104 14 822 -2 523 -7 779 -15 809 -12 50 -40 74 -71 62z m-485 -105
c0 -8 -4 -15 -10 -15 -5 0 -10 7 -10 15 0 8 5 15 10 15 6 0 10 -7 10 -15z
m-38 -10 c0 -5 -5 -11 -11 -13 -6 -2 -11 4 -11 13 0 9 5 15 11 13 6 -2 11 -8
11 -13z m-72 -12 c0 -9 -6 -13 -14 -10 -7 3 -19 0 -25 -6 -13 -13 -37 5 -27
21 10 16 66 12 66 -5z m40 7 c0 -5 -7 -10 -15 -10 -8 0 -15 5 -15 10 0 6 7 10
15 10 8 0 15 -4 15 -10z m-200 -31 c0 -5 -7 -9 -15 -9 -15 0 -20 12 -9 23 8 8
24 -1 24 -14z m40 11 c0 -5 -4 -10 -10 -10 -5 0 -10 5 -10 10 0 6 5 10 10 10
6 0 10 -4 10 -10z m40 0 c0 -5 -4 -10 -9 -10 -6 0 -13 5 -16 10 -3 6 1 10 9
10 9 0 16 -4 16 -10z m-240 -31 c0 -5 -4 -9 -10 -9 -5 0 -10 7 -10 16 0 8 5
12 10 9 6 -3 10 -10 10 -16z m38 10 c-2 -6 -8 -10 -13 -10 -5 0 -11 4 -13 10
-2 6 4 11 13 11 9 0 15 -5 13 -11z m-138 -20 c0 -5 -4 -9 -10 -9 -5 0 -10 7
-10 16 0 8 5 12 10 9 6 -3 10 -10 10 -16z m-44 -16 c-10 -10 -19 5 -10 18 6
11 8 11 12 0 2 -7 1 -15 -2 -18z m74 17 c0 -5 -4 -10 -10 -10 -5 0 -10 5 -10
10 0 6 5 10 10 10 6 0 10 -4 10 -10z m450 -63 c0 -35 -3 -152 -7 -260 l-6
-197 -68 0 c-37 0 -70 3 -72 8 -2 4 -1 115 2 247 l6 240 55 12 c94 19 90 21
90 -50z m-710 19 c0 -2 -11 -3 -25 -3 -24 0 -31 7 -19 20 6 6 44 -9 44 -17z
m25 15 c3 -5 1 -12 -5 -16 -5 -3 -10 1 -10 9 0 18 6 21 15 7z m275 -11 c0 -5
-5 -10 -11 -10 -5 0 -7 5 -4 10 3 6 8 10 11 10 2 0 4 -4 4 -10z m-360 -10 c0
-5 -4 -10 -10 -10 -5 0 -10 5 -10 10 0 6 5 10 10 10 6 0 10 -4 10 -10z m528
-232 l-3 -243 -67 -3 -67 -3 6 233 c3 128 7 235 9 237 5 5 72 18 102 20 l22 1
-2 -242z m-603 222 c8 -12 -5 -16 -68 -24 -30 -4 -46 -2 -42 4 3 6 17 10 30
10 13 0 27 5 30 10 8 13 42 13 50 0z m5 -80 c35 -19 41 -65 34 -242 l-7 -168
-54 0 -55 0 8 146 c4 96 3 145 -3 141 -6 -4 -13 -68 -16 -143 -3 -74 -7 -137
-9 -139 -2 -2 -23 -5 -48 -7 l-45 -3 4 144 c2 104 0 142 -8 137 -6 -4 -11 -35
-11 -70 0 -35 -3 -97 -6 -139 l-7 -77 -45 0 -45 0 7 138 c8 169 16 232 28 232
6 0 21 9 35 20 32 25 54 25 84 1 23 -18 23 -18 50 10 28 31 73 38 109 19z m97
-36 c-9 -9 -28 6 -21 18 4 6 10 6 17 -1 6 -6 8 -13 4 -17z m1273 6 c0 -5 -4
-10 -10 -10 -5 0 -10 5 -10 10 0 6 5 10 10 10 6 0 10 -4 10 -10z m-1025 -10
c3 -5 1 -10 -4 -10 -6 0 -11 5 -11 10 0 6 2 10 4 10 3 0 8 -4 11 -10z m885 0
c0 -5 -2 -10 -4 -10 -3 0 -8 5 -11 10 -3 6 -1 10 4 10 6 0 11 -4 11 -10z
m-1540 -20 c0 -5 -5 -10 -11 -10 -5 0 -7 5 -4 10 3 6 8 10 11 10 2 0 4 -4 4
-10z m-30 -10 c0 -5 -4 -10 -10 -10 -5 0 -10 5 -10 10 0 6 5 10 10 10 6 0 10
-4 10 -10z m687 -34 c39 -42 48 -93 38 -212 l-7 -85 -56 3 -56 3 3 86 c2 69
-1 89 -14 102 -12 13 -21 14 -35 7 -45 -24 -30 -87 18 -75 l25 6 -7 -63 c-4
-34 -10 -66 -13 -71 -7 -12 -70 1 -100 20 -36 24 -56 71 -56 133 0 86 42 147
120 176 55 20 102 10 140 -30z m1023 14 c0 -5 -4 -10 -10 -10 -5 0 -10 5 -10
10 0 6 5 10 10 10 6 0 10 -4 10 -10z m-40 -10 c0 -5 -2 -10 -4 -10 -3 0 -8 5
-11 10 -3 6 -1 10 4 10 6 0 11 -4 11 -10z m78 -249 c3 -29 1 -32 -20 -29 -26
3 -38 45 -16 59 21 14 33 5 36 -30z m-110 20 c39 -1 43 -3 40 -23 -3 -21 -10
-24 -93 -30 -100 -9 -155 -3 -155 15 0 22 16 38 33 32 9 -4 22 -3 31 2 8 4 34
7 58 6 24 -1 62 -2 86 -2z m-1500 -335 c30 -15 47 -42 61 -93 9 -32 9 -33 -23
-33 -26 0 -35 6 -45 26 -24 54 -76 -4 -55 -63 12 -36 57 -40 62 -5 4 23 12 26
49 16 25 -7 24 -29 -5 -92 -32 -71 -112 -60 -151 20 -37 78 -23 172 34 216 33
26 37 26 73 8z m126 -12 c11 -4 16 -19 16 -46 0 -31 3 -39 15 -35 7 3 24 -2
37 -12 20 -17 23 -29 26 -121 l4 -102 -28 4 c-28 3 -29 5 -32 68 -4 93 -22
102 -22 11 0 -71 -1 -73 -22 -67 -13 3 -26 6 -30 6 -10 0 -11 284 -1 293 8 9
17 9 37 1z m376 -78 c0 -35 4 -45 20 -49 16 -4 20 -14 20 -51 0 -34 -4 -46
-15 -46 -8 0 -15 -9 -15 -20 0 -11 7 -23 15 -26 11 -4 15 -21 15 -55 0 -53
-10 -60 -46 -34 -39 26 -53 75 -60 203 l-7 122 36 0 c37 0 37 0 37 -44z m281
14 c21 -6 44 -21 53 -35 17 -26 21 -91 7 -114 -6 -10 -2 -24 12 -43 26 -35 30
-115 8 -141 -8 -11 -28 -17 -52 -17 -33 0 -39 3 -40 23 l-2 22 -4 -22 c-4 -19
-9 -21 -36 -17 -18 3 -37 7 -44 9 -6 2 -13 -3 -15 -11 -2 -8 -4 69 -5 171 l-3
185 43 0 c23 0 58 -5 78 -10z m-422 -46 c35 -25 51 -75 51 -163 l0 -79 -34 8
c-19 4 -37 6 -40 3 -2 -2 -17 2 -34 11 -36 19 -62 71 -62 126 0 91 58 136 119
94z m859 1 c3 -2 7 -25 10 -50 4 -37 10 -48 28 -56 21 -7 24 -15 24 -64 0 -40
-4 -55 -13 -53 -18 4 -21 -3 -13 -28 4 -12 15 -24 25 -27 15 -4 20 -16 23 -62
1 -31 0 -59 -4 -61 -4 -3 -22 2 -41 10 -39 16 -80 65 -96 116 -11 36 -31 203
-31 260 l0 33 42 -7 c23 -4 44 -9 46 -11z m376 -66 c16 -14 -2 -37 -31 -41
-22 -2 -27 -7 -24 -23 3 -19 2 -19 -15 -4 -11 9 -35 19 -55 23 -43 8 -67 30
-47 42 33 21 150 23 172 3z m-554 -14 c37 -19 66 -61 81 -117 15 -56 6 -92
-32 -131 -26 -26 -35 -29 -71 -24 -64 9 -123 79 -128 152 -4 60 1 77 29 106
33 33 75 38 121 14z m443 -52 c3 -5 8 -34 11 -65 6 -47 5 -58 -7 -58 -10 0
-17 -17 -22 -56 -9 -73 -37 -104 -94 -104 -22 0 -42 3 -44 8 -3 4 -8 33 -12
65 -7 54 -6 57 14 57 11 0 21 6 22 13 4 100 6 110 28 128 23 19 95 27 104 12z
m-896 -125 c-3 -8 -6 -5 -6 6 -1 11 2 17 5 13 3 -3 4 -12 1 -19z m-627 -52 c8
-1 37 -6 65 -11 27 -4 59 -9 70 -10 11 -1 20 -4 20 -5 0 -1 11 -3 25 -4 27 -2
68 -22 60 -29 -3 -3 -27 -1 -55 4 -27 5 -68 11 -90 14 -22 3 -63 11 -90 18
-28 7 -67 12 -88 12 -26 -1 -37 3 -37 13 0 14 24 14 120 -2z m960 -26 c0 -4
-11 -5 -25 -2 -14 2 -25 8 -25 12 0 4 11 5 25 2 14 -2 25 -8 25 -12z m-428
-142 c-7 -7 -12 -8 -12 -2 0 14 12 26 19 19 2 -3 -1 -11 -7 -17z"/>
<path d="M8882 8623 c3 -72 5 -78 26 -81 27 -4 29 14 2 23 -16 5 -20 15 -20
55 0 28 5 50 12 52 13 5 2 28 -13 28 -6 0 -9 -31 -7 -77z"/>
<path d="M8437 8655 c-9 -21 2 -45 20 -45 10 0 13 9 11 27 -3 30 -23 41 -31
18z"/>
<path d="M9110 8565 c-10 -12 -9 -20 4 -41 10 -14 23 -23 29 -21 17 5 21 45 7
63 -16 18 -24 18 -40 -1z"/>
<path d="M9423 9739 c-29 -8 -33 -14 -33 -43 0 -39 15 -48 57 -37 25 7 28 12
28 46 0 43 -6 47 -52 34z"/>
<path d="M4777 8445 c-108 -41 -256 -182 -326 -310 -36 -64 -51 -106 -100
-270 -5 -16 -22 -83 -37 -147 -25 -107 -43 -147 -44 -100 -1 15 -2 15 -15 -2
-8 -11 -15 -28 -15 -38 0 -10 -4 -18 -9 -18 -5 0 -13 -9 -16 -20 -4 -13 -15
-20 -31 -20 -13 0 -24 -4 -24 -10 0 -13 -37 -13 -42 0 -2 6 -13 12 -26 13 -16
1 -21 6 -16 19 7 22 -4 58 -17 58 -17 0 -69 -57 -69 -75 0 -8 -6 -26 -14 -38
-7 -12 -21 -47 -31 -77 -10 -30 -21 -64 -26 -75 -10 -25 -34 -140 -55 -260 -9
-49 -29 -144 -44 -210 -43 -179 -63 -332 -51 -384 5 -24 7 -49 5 -55 -2 -6 9
-19 26 -29 19 -12 34 -31 41 -58 9 -28 19 -41 36 -45 12 -4 23 -11 23 -17 0
-12 119 -127 132 -127 5 0 7 -9 3 -20 -5 -15 -3 -18 9 -14 9 3 20 -3 28 -15 7
-12 18 -21 25 -21 7 0 13 -7 13 -15 0 -8 7 -15 15 -15 9 0 18 -7 21 -15 4 -8
12 -15 20 -15 8 0 14 -4 14 -10 0 -5 7 -10 16 -10 8 0 12 -4 9 -10 -3 -5 -1
-10 5 -10 6 0 26 -16 46 -35 19 -19 39 -35 44 -35 6 0 10 -4 10 -10 0 -5 12
-13 26 -16 14 -4 21 -9 16 -13 -6 -3 12 -17 38 -30 27 -14 47 -28 44 -33 -3
-4 1 -5 9 -3 7 3 24 -4 37 -15 13 -11 34 -23 47 -26 13 -4 20 -11 16 -17 -4
-6 0 -8 8 -5 8 3 23 0 34 -8 10 -8 27 -14 37 -14 10 0 18 -4 18 -10 0 -5 20
-15 45 -21 25 -6 45 -15 45 -19 0 -8 40 -22 70 -25 21 -3 148 -63 154 -74 3
-5 -4 -12 -17 -15 -25 -6 -117 -83 -117 -97 0 -5 10 -14 23 -19 63 -25 -170 1
-319 36 -73 17 -75 17 -102 -3 -30 -23 -71 -88 -105 -169 -18 -42 -32 -59 -60
-73 -66 -34 -172 -129 -342 -306 -216 -227 -332 -304 -485 -327 -157 -23 -334
46 -468 184 -53 55 -106 155 -87 166 29 17 49 77 50 147 0 96 -35 167 -128
257 -88 86 -188 138 -276 144 -38 3 -61 1 -61 -6 0 -18 -28 -11 -35 10 -12 39
41 89 83 78 33 -9 409 21 441 34 17 7 55 37 86 67 l55 53 2 627 c1 344 1 639
1 655 -2 54 -82 129 -133 125 -14 -2 -45 8 -70 21 -55 29 -88 30 -369 6 -112
-9 -205 -15 -208 -12 -3 3 -5 55 -5 116 1 67 -3 108 -8 105 -6 -4 -10 0 -10 8
0 34 -111 57 -162 33 -61 -29 -73 -78 -53 -218 7 -55 7 -57 -16 -62 -30 -7
-261 -24 -482 -35 -140 -8 -172 -13 -200 -30 -44 -27 -83 -70 -97 -106 -18
-46 -26 -1306 -9 -1346 7 -18 36 -47 72 -71 l60 -41 177 6 c97 4 255 13 351
21 95 8 211 17 256 21 l81 6 6 -58 c4 -32 11 -103 17 -157 l12 -100 -25 -20
c-44 -36 -59 -70 -60 -133 -1 -75 25 -134 83 -191 l44 -43 11 -132 c6 -73 15
-157 19 -188 7 -54 6 -56 -17 -62 -25 -7 -48 -43 -48 -78 0 -30 27 -77 48 -83
31 -10 165 13 192 33 33 24 37 72 11 130 -21 48 -41 201 -41 318 l0 65 35 -6
c29 -6 39 -3 59 17 l24 24 11 -41 c12 -50 96 -172 159 -232 45 -43 180 -131
194 -127 4 2 23 -6 43 -17 105 -59 339 -79 488 -41 42 11 101 32 131 46 88 41
262 178 369 289 66 68 93 91 83 69 -16 -32 -106 -372 -106 -399 0 -8 20 -24
45 -36 25 -12 48 -31 51 -42 4 -12 10 -23 14 -26 4 -3 1 -39 -6 -80 -14 -78
-11 -253 5 -378 5 -37 8 -76 8 -87 0 -11 1 -24 3 -30 8 -31 -2 -63 -25 -75
-16 -9 -25 -22 -25 -37 0 -14 -5 -33 -10 -43 -7 -13 -7 -21 0 -25 6 -4 8 -15
5 -25 -3 -10 1 -24 9 -32 15 -16 192 -50 241 -47 50 3 65 0 65 -14 0 -22 -40
-35 -115 -41 -38 -3 -88 -9 -110 -13 l-40 -8 -1 -130 c0 -72 1 -135 3 -142 6
-17 34 -22 217 -38 92 -9 188 -20 212 -25 24 -6 133 -12 241 -15 109 -3 220
-11 246 -16 26 -6 57 -9 67 -6 11 3 20 1 20 -4 0 -5 9 -9 20 -9 25 0 23 10 50
-195 12 -93 29 -201 36 -238 8 -38 14 -88 14 -111 0 -41 -2 -43 -39 -54 -50
-15 -85 -44 -101 -81 -20 -48 -6 -76 53 -110 87 -50 120 -78 102 -85 -11 -4
-14 -2 -9 6 5 7 2 9 -9 5 -8 -3 -21 1 -27 9 -7 8 -17 14 -22 14 -5 0 -29 14
-53 30 -24 17 -46 30 -49 30 -3 0 -6 -16 -6 -36 0 -20 -4 -53 -9 -73 -5 -20
-15 -79 -21 -131 -19 -151 -38 -222 -85 -326 -19 -42 -35 -83 -35 -90 0 -10
15 -14 54 -14 30 0 57 -4 60 -9 3 -5 -22 -6 -58 -4 l-64 6 -51 -48 c-28 -26
-51 -51 -51 -56 0 -4 28 -10 63 -12 37 -2 16 -4 -53 -5 -203 -3 -334 -46 -389
-126 -56 -80 -61 -140 -24 -289 15 -65 15 -71 -1 -99 -27 -45 -15 -72 46 -98
29 -13 68 -26 87 -29 60 -11 49 -30 -20 -33 -78 -4 -89 -23 -17 -31 149 -18
473 -1 693 38 226 39 255 41 303 16 23 -12 59 -21 80 -21 35 0 73 -22 60 -35
-2 -2 -41 -7 -86 -11 -79 -7 -99 -15 -67 -28 9 -3 86 -13 172 -22 133 -15 183
-15 342 -6 177 11 229 19 461 73 114 27 231 64 280 89 37 19 40 23 40 64 0 57
-20 147 -37 164 -7 7 -13 22 -13 33 0 11 -4 18 -8 15 -5 -3 -6 8 -4 24 2 16
-7 56 -22 93 -37 92 -125 424 -141 527 -17 114 -38 345 -44 470 l-6 145 -24
-3 c-14 -1 -28 3 -32 10 -8 13 -8 12 -88 26 -29 5 -57 15 -61 22 -27 44 -59
462 -60 776 l0 221 53 7 c28 3 93 6 142 6 186 0 590 37 730 65 38 8 78 23 88
34 35 35 56 181 26 181 -23 0 -29 65 -44 416 -8 209 -20 429 -25 489 -5 61 -9
117 -8 125 3 34 -3 61 -12 55 -15 -9 -39 7 -183 128 -212 179 -354 270 -521
332 -27 11 -44 21 -38 23 20 6 243 -70 358 -123 111 -51 178 -102 316 -242 70
-70 169 -169 220 -218 51 -50 133 -140 182 -200 48 -61 93 -109 98 -107 5 1 7
-1 4 -6 -3 -5 10 -31 30 -58 48 -67 131 -205 149 -247 l14 -35 -63 5 c-54 5
-72 2 -124 -22 -108 -48 -201 -174 -189 -253 7 -42 50 -86 77 -79 15 4 14 -3
-6 -52 -13 -31 -24 -64 -24 -73 0 -38 -11 -47 -47 -41 -39 7 -53 -5 -53 -48 0
-39 31 -72 109 -113 l69 -36 -5 -103 c-3 -56 -10 -110 -15 -119 -9 -18 -51
-19 -314 -3 -68 5 -93 3 -101 -7 -6 -7 -13 -47 -16 -90 -2 -42 -7 -80 -10 -85
-12 -19 -19 -71 -21 -158 -2 -51 -8 -101 -16 -115 -12 -22 -12 -24 2 -12 13
10 15 9 10 -13 -2 -14 -8 -25 -13 -25 -4 0 -6 -32 -4 -72 2 -48 0 -67 -7 -57
-7 10 -8 4 -5 -20 2 -19 -4 -73 -13 -120 -10 -47 -25 -133 -35 -191 -17 -105
-42 -207 -66 -266 -13 -34 -7 -64 13 -63 10 0 10 2 1 6 -34 13 2 55 38 46 11
-3 19 0 19 6 0 16 90 14 157 -5 32 -9 70 -19 86 -21 15 -3 27 -10 27 -15 0 -6
15 -8 34 -6 19 2 32 0 29 -5 -2 -4 18 -5 46 -1 32 4 51 3 51 -4 0 -5 8 -12 18
-14 17 -5 18 7 15 211 -2 119 -4 262 -6 319 -1 56 0 95 4 85 6 -17 7 -16 11 2
5 16 6 17 7 3 1 -21 31 -24 49 -6 9 9 12 9 12 -1 0 -9 9 -12 24 -9 18 4 23 1
18 -10 -3 -8 3 -21 13 -29 18 -13 18 -16 -8 -96 -15 -45 -27 -86 -27 -90 0 -5
-6 -15 -12 -22 -33 -37 -40 -47 -33 -53 3 -3 9 -2 13 3 4 6 15 16 24 23 18 14
14 16 106 -47 31 -21 41 -22 177 -19 109 2 146 0 150 -9 2 -7 16 -13 30 -13
14 0 25 -4 25 -10 0 -20 82 -3 104 21 11 13 47 46 79 72 54 46 57 51 57 93 0
25 -7 61 -16 82 -9 22 -19 91 -25 172 -16 249 -27 332 -41 324 -9 -6 -8 45 3
161 1 6 -1 36 -5 69 -6 62 -25 87 -58 78 -10 -2 -18 1 -18 8 0 7 -13 11 -32 9
-18 -1 -48 -1 -67 0 -28 1 -33 4 -28 21 3 11 1 20 -4 20 -12 0 -12 141 0 159
5 8 16 11 26 7 14 -5 17 -15 13 -58 -6 -61 9 -41 18 25 l6 45 -38 12 c-22 7
-49 20 -60 29 -21 17 -21 17 37 66 82 69 119 142 128 248 9 97 4 127 -26 161
-12 14 -18 28 -13 31 5 3 12 -4 15 -16 4 -11 9 -18 12 -16 10 11 -19 48 -33
43 -8 -3 -14 1 -14 8 0 7 -10 18 -22 24 -15 7 -18 11 -8 12 8 0 -16 16 -54 34
-94 47 -99 53 -101 133 -2 70 -34 153 -69 182 -13 11 -14 16 -4 29 7 9 8 13 2
9 -7 -4 -16 9 -24 33 -8 23 -17 37 -24 33 -6 -3 -8 -3 -4 2 8 9 -34 92 -61
121 -26 28 -43 63 -36 73 7 12 -43 71 -57 68 -5 -1 -15 6 -21 16 -15 23 -68
85 -129 150 -26 27 -45 54 -42 59 3 4 0 7 -8 6 -7 -2 -12 3 -11 9 2 7 -1 12
-6 10 -5 -1 -21 12 -36 28 -251 271 -294 309 -427 380 -46 24 -136 60 -201 79
-118 36 -119 36 -312 36 l-194 0 -20 26 c-41 53 -32 58 129 69 192 13 420 57
504 97 22 10 46 18 53 18 7 0 13 5 13 11 0 7 10 9 25 6 14 -2 23 -2 20 1 -7 8
52 42 74 42 10 0 21 6 24 14 3 8 16 16 29 18 13 2 22 9 21 16 -2 6 0 11 5 10
17 -4 60 26 76 53 9 16 24 29 32 29 8 0 14 6 14 13 0 12 43 57 54 57 2 0 18
14 36 30 18 17 36 30 41 30 6 0 35 25 66 55 31 30 64 55 74 55 25 0 86 42 92
63 4 12 15 17 41 17 35 0 36 1 36 40 0 35 3 40 23 41 l22 0 -24 10 c-19 8 -21
12 -11 24 7 8 10 15 6 15 -18 0 -203 32 -216 37 -8 3 -19 7 -25 7 -5 1 -25 5
-44 10 l-33 8 23 22 c13 12 33 22 44 23 11 0 90 2 175 3 233 4 431 24 447 46
16 22 17 76 1 92 -6 6 -12 22 -14 34 -7 87 -18 148 -25 148 -5 0 -9 11 -9 24
0 27 -30 128 -41 136 -3 3 -10 20 -14 39 -4 19 -16 50 -26 68 -11 19 -19 41
-19 50 0 9 -33 50 -72 90 -65 65 -77 73 -110 73 -21 0 -38 5 -38 10 0 6 -22
10 -50 10 -38 0 -50 4 -50 15 0 13 -20 15 -124 15 -98 0 -126 3 -136 15 -10
12 -41 15 -156 15 -89 0 -144 4 -144 10 0 6 -18 10 -40 10 -29 0 -40 4 -40 15
0 11 -11 15 -40 15 -31 0 -40 -4 -40 -17 0 -14 -2 -14 -20 2 -18 16 -40 19
-143 21 -77 1 -123 6 -125 13 -2 6 -19 11 -38 11 -19 0 -34 5 -34 10 0 6 -10
10 -23 10 -13 0 -36 14 -52 30 -32 33 -45 38 -45 15 0 -8 -4 -15 -10 -15 -5 0
-10 7 -10 15 0 8 -8 15 -19 15 -40 0 -44 23 -47 229 -6 395 -36 542 -129 636
-133 132 -322 119 -455 -32 -95 -109 -173 -359 -200 -643 -12 -124 -19 -158
-21 -107 -1 15 -3 32 -4 37 -1 6 -3 17 -4 26 -1 10 -7 14 -16 10 -8 -3 -16 0
-16 7 -2 20 -5 31 -13 52 -5 11 -17 44 -29 72 -23 58 -65 103 -97 103 -12 0
-39 9 -62 21 -22 11 -49 18 -60 16 -24 -7 -50 2 -43 13 3 5 -4 12 -16 15 -13
4 -25 2 -29 -5 -5 -9 -13 -9 -27 -2 -10 6 -47 12 -81 14 -54 2 -62 5 -67 25
-6 24 0 63 15 98 20 46 25 82 36 216 5 74 4 90 -14 125 -11 21 -31 49 -44 62
-32 29 -108 37 -161 17z m160 -567 c-3 -7 -5 -2 -5 12 0 14 2 19 5 13 2 -7 2
-19 0 -25z m930 -19 c-5 -38 -30 -79 -49 -79 -11 0 -10 63 2 94 6 17 17 26 31
26 20 0 21 -4 16 -41z m-1103 -215 c18 -7 22 -39 6 -49 -6 -4 -5 -13 3 -26 23
-38 -38 -62 -98 -39 -25 10 -26 12 -12 33 8 12 18 37 21 55 6 27 12 32 36 32
16 0 35 -3 44 -6z m-232 -37 c4 -6 2 -17 -3 -24 -6 -7 -8 -16 -6 -21 12 -18
-13 -34 -58 -40 -43 -4 -48 -3 -42 12 4 10 10 30 13 44 11 45 32 62 62 51 15
-6 30 -15 34 -22z m1256 1 c14 -14 16 -94 2 -103 -5 -3 -10 -23 -10 -44 0 -47
-18 -65 -51 -52 -13 5 -36 12 -51 15 -32 7 -38 39 -12 54 11 6 13 11 5 16 -16
10 -13 78 5 104 11 17 25 22 58 22 23 0 47 -5 54 -12z m-1531 -45 c-3 -10 -5
-4 -5 12 0 17 2 24 5 18 2 -7 2 -21 0 -30z m253 -108 c11 -3 20 -14 20 -24 0
-10 3 -46 6 -79 l7 -62 -36 -15 c-54 -22 -76 -19 -88 12 -15 41 -14 164 2 173
13 9 53 6 89 -5z m197 -15 c-3 -13 0 -20 9 -20 20 0 46 -57 38 -83 -10 -33
-27 -44 -71 -48 -36 -4 -43 -1 -52 19 -20 43 -11 78 34 128 26 29 49 31 42 4z
m-2513 -79 c11 -13 15 -27 11 -40 -8 -25 -14 -26 -42 -6 -16 12 -22 12 -26 2
-3 -7 -6 -4 -6 6 -1 25 17 57 33 57 7 0 21 -9 30 -19z m3574 -8 c15 -21 16
-60 1 -102 -11 -30 -13 -31 -69 -31 -61 0 -90 15 -90 48 0 35 21 92 38 101 25
14 105 3 120 -16z m-921 -35 c-3 -8 -6 -5 -6 6 -1 11 2 17 5 13 3 -3 4 -12 1
-19z m-2614 -135 c3 -16 4 -29 3 -30 -1 -1 -25 -5 -54 -9 l-52 -7 0 37 0 36
49 0 c45 0 49 -2 54 -27z m3328 -245 c46 -35 160 -84 231 -99 29 -6 58 -15 63
-18 14 -11 111 -30 176 -35 54 -4 99 -22 99 -38 0 -5 -10 -8 -22 -8 -17 0 -19
-3 -9 -9 34 -22 -94 -51 -222 -51 -193 0 -332 62 -389 173 -20 39 -18 87 4
114 11 14 17 12 69 -29z m-2821 -187 l0 -168 -31 -7 c-17 -3 -42 -6 -55 -6
l-24 0 0 175 0 175 55 0 55 0 0 -169z m-190 -10 l0 -168 -31 -7 c-17 -3 -42
-6 -55 -6 l-24 0 0 175 0 175 55 0 55 0 0 -169z m2200 70 c-59 -86 -142 -122
-248 -107 -26 4 -78 9 -117 13 -90 8 -132 33 -141 86 -7 43 -7 42 24 51 13 5
22 3 22 -3 0 -6 22 -10 53 -9 65 2 84 -7 62 -28 -8 -9 -15 -21 -15 -27 0 -7 4
-6 10 3 6 10 10 11 10 3 0 -7 11 -13 25 -13 14 0 25 5 25 10 0 6 31 10 73 10
95 1 194 23 220 49 34 34 32 14 -3 -38z m-2792 -8 c18 -84 45 -263 41 -267 -2
-2 -27 -6 -55 -10 l-52 -6 -14 107 -14 108 -28 -90 c-15 -49 -29 -97 -32 -106
-5 -18 -72 -36 -84 -22 -4 4 -20 50 -35 101 -17 53 -32 88 -36 81 -4 -7 -10
-47 -14 -89 -4 -42 -10 -83 -15 -90 -4 -7 -30 -15 -58 -18 l-50 -4 15 88 c39
246 37 238 63 245 14 4 46 7 72 8 l47 1 16 -57 c32 -115 29 -114 55 -20 l23
87 73 0 72 0 10 -47z m265 -44 c16 -9 22 -9 25 0 2 6 26 11 58 11 l54 0 0
-109 0 -108 -31 -7 c-48 -9 -77 -7 -81 6 -3 8 -11 7 -28 -5 -27 -19 -81 -22
-111 -7 -65 35 -63 168 3 214 26 19 80 21 111 5z m5137 -389 c0 -5 -5 -10 -11
-10 -5 0 -7 5 -4 10 3 6 8 10 11 10 2 0 4 -4 4 -10z m-5380 -169 l0 -69 37 19
c48 24 88 24 113 -1 17 -17 20 -33 20 -114 l0 -93 -31 -7 c-77 -15 -78 -14
-81 72 -3 75 -4 77 -28 77 -24 0 -25 -2 -28 -76 l-3 -77 -31 -6 c-17 -3 -41
-6 -54 -6 l-24 0 0 175 0 175 55 0 55 0 0 -69z m741 -1 c28 0 27 -56 -1 -65
-18 -6 -20 -15 -20 -84 l0 -78 -37 -7 c-76 -12 -73 -15 -73 79 0 78 -2 85 -20
85 -16 0 -20 7 -20 30 0 23 4 30 20 30 15 0 20 7 20 29 0 29 2 30 53 33 50 3
52 2 55 -24 2 -20 9 -28 23 -28z m-901 10 l0 -40 -40 0 c-52 0 -93 -21 -108
-55 -19 -41 -14 -74 13 -101 23 -23 33 -25 80 -22 l55 3 0 -41 0 -41 -44 -5
c-137 -16 -236 53 -236 162 0 101 98 178 228 180 l52 0 0 -40z m553 -41 c16
-9 22 -9 25 0 2 6 26 11 58 11 l54 0 0 -109 0 -108 -31 -7 c-48 -9 -77 -7 -81
6 -3 8 -11 7 -28 -5 -27 -19 -81 -22 -111 -7 -65 35 -63 168 3 214 26 19 80
21 111 5z m3937 -337 c0 -14 -95 -32 -134 -25 -38 6 -47 19 -18 26 31 8 152 7
152 -1z m-836 -138 c9 -3 16 -10 16 -15 0 -15 -37 -10 -50 6 -10 12 -10 15 3
15 8 0 22 -3 31 -6z m-132 -231 c2 -38 2 -70 1 -72 -3 -5 -343 18 -413 28
l-55 9 45 2 c25 2 54 4 65 4 11 1 25 4 30 7 6 3 31 7 57 8 26 1 65 9 85 18 21
9 43 16 50 15 6 -2 14 2 18 8 3 5 17 10 30 10 32 0 56 10 49 21 -3 5 4 9 15 9
17 0 20 -8 23 -67z m568 54 c63 1 141 5 173 8 l57 6 0 -87 0 -87 -237 7 c-131
3 -302 9 -380 13 l-143 6 0 75 0 75 208 -9 c114 -5 259 -8 322 -7z m-1300
-327 c0 -22 3 -40 8 -40 4 0 17 18 30 40 29 50 52 53 52 6 0 -48 14 -52 36
-11 10 19 25 35 32 35 9 0 6 -11 -10 -38 -59 -99 -67 -102 -78 -29 l-6 42 -27
-42 c-40 -62 -57 -57 -57 17 0 33 4 60 10 60 6 0 10 -18 10 -40z m-1829 14
c12 -14 11 -16 -5 -13 -11 2 -21 10 -24 17 -5 17 13 15 29 -4z m2142 -44 c-9
-33 -19 -60 -24 -60 -12 0 -11 8 3 69 6 28 17 51 24 51 9 0 8 -14 -3 -60z
m1087 28 c0 -5 14 -21 30 -35 35 -29 38 -61 15 -148 -8 -31 -22 -103 -31 -160
-9 -57 -21 -110 -25 -117 -6 -9 -35 -12 -111 -10 -56 2 -106 6 -110 8 -4 3
-33 9 -64 14 -31 5 -62 15 -70 21 -32 26 -6 119 32 119 20 0 37 34 79 155 41
117 62 158 76 149 5 -3 9 0 9 6 0 6 4 9 9 6 4 -3 28 -2 52 2 52 9 109 4 109
-10z m-3585 -39 c-3 -4 -14 -5 -25 -2 -22 6 -27 29 -7 36 13 5 39 -22 32 -34z
m2439 25 c26 -25 19 -34 -30 -34 -32 0 -44 -4 -41 -12 2 -8 20 -12 43 -11 l39
1 -30 -13 c-38 -17 -69 -5 -73 28 -6 45 59 74 92 41z m176 1 c10 -13 7 -14
-26 -12 -36 2 -39 0 -42 -25 -3 -22 1 -28 15 -28 11 0 24 5 31 12 6 6 15 9 19
5 12 -13 -13 -28 -47 -29 -29 -1 -49 13 -50 35 0 16 49 57 68 57 11 0 25 -7
32 -15z m108 3 c16 -16 15 -53 -2 -67 -19 -16 -74 -17 -88 -3 -6 6 -8 22 -4
37 9 37 69 58 94 33z m190 -13 c8 -8 -11 -85 -20 -85 -7 0 -8 15 -4 41 6 35 4
40 -11 37 -10 -2 -22 -17 -28 -36 -13 -45 -35 -43 -28 4 5 31 3 36 -12 33 -11
-3 -22 -17 -27 -37 -12 -46 -32 -42 -23 5 4 21 9 41 11 45 4 7 135 0 142 -7z
m116 -1 c26 -25 19 -34 -30 -34 -32 0 -44 -4 -41 -12 2 -8 20 -12 43 -11 l39
1 -30 -13 c-38 -17 -69 -5 -73 28 -6 45 59 74 92 41z m-3077 -154 c-14 -11
-29 -29 -32 -40 -8 -26 -25 -26 -25 0 0 12 13 28 33 40 42 26 57 26 24 0z
m350 -17 c-3 -10 -5 -4 -5 12 0 17 2 24 5 18 2 -7 2 -21 0 -30z m-179 -5 c7
-7 12 -21 12 -32 0 -19 -1 -19 -16 2 -9 13 -26 27 -38 32 -20 8 -20 9 5 9 14
1 30 -4 37 -11z m2017 -18 c-6 -17 -2 -20 29 -20 42 0 69 -24 60 -54 -16 -53
-65 -79 -133 -70 l-48 6 31 79 c23 58 36 79 49 79 14 0 17 -5 12 -20z m561
-20 c-3 -11 -9 -30 -13 -42 l-6 -22 37 22 c20 12 47 22 59 22 18 -1 14 -6 -20
-26 l-42 -25 20 -32 c24 -40 24 -47 -1 -47 -12 0 -26 12 -35 30 -19 37 -28 38
-43 5 -6 -14 -18 -25 -27 -25 -20 0 -20 1 12 87 21 55 32 73 46 73 15 0 18 -5
13 -20z m-302 -6 c20 -7 20 -27 2 -79 l-14 -40 -66 1 c-78 0 -100 14 -70 44
12 13 40 23 72 27 34 4 52 10 52 19 0 16 -55 19 -65 4 -3 -5 -15 -10 -26 -10
-24 0 -16 18 15 30 25 10 78 12 100 4z m194 -16 c18 -18 15 -28 -8 -28 -11 0
-20 5 -20 10 0 12 -40 13 -56 2 -6 -4 -17 -18 -23 -31 -11 -19 -10 -26 3 -40
15 -15 19 -15 47 2 35 20 49 22 49 6 0 -12 -61 -39 -89 -39 -10 0 -29 8 -42
19 -21 17 -22 21 -9 50 7 17 25 38 39 46 32 17 93 19 109 3z m-2158 -42 c0 -5
18 -33 40 -63 52 -68 154 -152 239 -196 76 -40 205 -68 278 -61 87 10 124 10
129 3 10 -17 -76 -28 -181 -25 -80 3 -126 10 -170 26 -33 12 -69 23 -79 25
-11 3 -22 8 -25 13 -3 4 -25 14 -48 21 -23 8 -40 18 -36 24 3 6 1 7 -5 4 -11
-7 -72 23 -72 36 0 4 -5 7 -11 7 -20 0 -90 84 -85 103 2 9 0 17 -4 17 -7 0
-22 31 -25 50 0 3 -4 11 -9 18 -9 15 -9 15 19 30 15 8 22 6 32 -6 7 -10 13
-21 13 -26z m1005 -76 c-27 -28 -54 -50 -60 -50 -5 0 15 24 45 54 69 67 82 64
15 -4z m2522 -42 c-3 -7 -5 -2 -5 12 0 14 2 19 5 13 2 -7 2 -19 0 -25z m-1532
-58 c237 -6 516 -14 620 -20 105 -5 242 -9 306 -10 64 0 131 -3 148 -6 38 -8
39 -24 14 -133 l-17 -74 -146 7 c-80 3 -293 8 -475 11 -181 3 -361 7 -400 10
-38 3 -158 10 -265 15 -207 11 -337 26 -358 43 -21 17 -11 61 16 65 20 3 22 7
16 37 -3 19 -1 42 6 55 11 20 17 22 59 16 25 -4 240 -11 476 -16z m2674 -6 c5
4 12 2 15 -3 3 -5 -1 -11 -9 -15 -16 -6 -45 18 -45 37 0 7 7 4 15 -7 7 -10 18
-15 24 -12z m162 -188 c44 -68 50 -87 15 -54 -12 13 -21 28 -19 35 3 6 -5 16
-16 23 -12 6 -21 17 -21 25 0 8 -18 32 -40 54 -22 21 -36 41 -32 45 9 10 63
-51 113 -128z m-4101 70 c0 -3 -4 -8 -10 -11 -5 -3 -10 -1 -10 4 0 6 5 11 10
11 6 0 10 -2 10 -4z m4204 -291 c3 -8 1 -15 -4 -15 -6 0 -10 7 -10 15 0 8 2
15 4 15 2 0 6 -7 10 -15z m-38 -353 c24 -21 47 -69 35 -77 -5 -3 -12 2 -15 11
-4 9 -9 14 -12 11 -4 -3 -15 3 -27 14 -11 10 -29 19 -38 19 -45 0 -66 25 -26
33 44 9 62 6 83 -11z m-698 -291 c57 -36 -318 -61 -998 -68 -660 -6 -930 1
-960 27 -12 10 -17 20 -13 23 4 3 314 6 688 7 374 1 775 5 890 9 310 11 379
12 393 2z m622 -70 c0 -12 -47 -61 -59 -61 -5 0 5 15 22 34 37 39 37 39 37 27z
m-9 -87 c50 -15 95 -42 85 -51 -2 -3 -15 2 -28 10 -29 20 -138 48 -151 40 -6
-3 -7 -1 -3 5 10 16 32 15 97 -4z m-115 -13 c-8 -12 -66 -32 -66 -22 0 4 12
12 28 18 35 14 44 15 38 4z m389 -71 c3 -6 -1 -7 -9 -4 -18 7 -21 14 -7 14 6
0 13 -4 16 -10z m-1916 -16 c5 -4 5 -12 21 -314 6 -113 20 -283 31 -377 10
-95 19 -181 19 -191 0 -12 -20 -26 -62 -45 -99 -43 -106 -52 -114 -129 -9 -88
3 -116 66 -151 50 -28 89 -69 71 -75 -6 -2 -7 -10 -4 -19 8 -21 -6 -12 -70 40
-26 22 -50 37 -52 35 -3 -2 0 -41 5 -85 7 -52 7 -103 1 -144 -13 -88 -69 -347
-77 -361 -9 -14 -23 -88 -17 -88 2 0 20 7 41 16 23 10 75 18 140 20 71 3 111
9 125 19 25 17 47 20 47 5 0 -5 -8 -10 -19 -10 -10 0 -24 -6 -30 -14 -9 -11
-3 -19 35 -40 66 -37 81 -34 94 15 15 53 31 39 38 -30 l5 -51 -41 0 c-28 0
-63 12 -115 40 -97 52 -147 58 -252 31 -43 -12 -84 -26 -89 -31 -28 -28 -33
-7 -39 153 -3 89 -10 194 -16 232 -5 39 -15 126 -21 195 -13 149 -46 308 -68
333 -23 26 -67 45 -133 58 -32 6 -63 17 -68 23 -19 23 -89 563 -74 576 4 4 37
15 73 25 95 25 149 56 206 117 60 63 79 97 94 164 6 27 12 54 14 60 4 10 224
8 235 -2z m1965 -168 c8 -81 7 -91 -10 -103 -16 -11 -12 -13 35 -13 65 0 100
-25 43 -30 -21 -2 -72 -3 -114 -2 -49 1 -78 -2 -78 -9 0 -6 -7 -3 -16 6 -11
11 -25 14 -38 10 -12 -4 -29 -7 -38 -6 -21 0 -24 -15 -5 -22 6 -2 3 -2 -8 0
-54 11 -129 15 -122 7 8 -8 -192 -35 -201 -28 -2 1 9 11 24 21 20 13 46 18 90
17 51 -1 61 2 56 14 -3 9 -1 13 4 10 5 -4 8 25 6 71 -3 70 -1 80 20 104 22 26
28 27 123 29 55 0 111 5 125 9 14 4 41 7 60 6 l35 -2 9 -89z m-393 -51 c-8
-98 -8 -99 -10 -29 -1 66 7 139 15 131 2 -1 -1 -48 -5 -102z m-2802 -111 c9
-8 -75 -3 -88 5 -8 5 5 7 35 4 27 -3 51 -7 53 -9z m74 -1 c-7 -2 -21 -2 -30 0
-10 3 -4 5 12 5 17 0 24 -2 18 -5z m1344 -445 c-2 -13 -4 -5 -4 17 -1 22 1 32
4 23 2 -10 2 -28 0 -40z m-22 -398 c-3 -5 -12 -10 -18 -10 -7 0 -6 4 3 10 19
12 23 12 15 0z m65 6 c0 -2 -43 -22 -96 -45 -69 -31 -99 -40 -107 -32 -8 8 -8
11 1 12 25 3 29 5 46 22 19 19 31 23 21 7 -3 -6 1 -7 9 -4 9 3 14 9 11 13 -2
4 9 5 25 3 21 -3 32 1 36 12 5 13 54 24 54 12z m-749 -19 c-1 -4 -1 -14 -1
-22 0 -8 -7 -15 -15 -15 -15 0 -21 31 -8 44 8 8 25 3 24 -7z m879 -17 c0 -25
-4 -30 -25 -30 -27 0 -28 3 -19 38 4 13 14 22 25 22 14 0 19 -7 19 -30z m-95
1 c3 -5 1 -12 -4 -15 -5 -3 -11 1 -15 9 -6 16 9 21 19 6z m-151 -120 c4 -5 20
-13 37 -16 21 -5 28 -10 21 -17 -6 -6 -19 -7 -29 -3 -10 5 -27 7 -38 6 -17 -2
-18 0 -5 9 13 9 13 11 0 19 -8 6 -24 17 -35 26 -19 15 -18 15 12 1 17 -9 34
-20 37 -25z m-999 -1 c-3 -5 -13 -10 -21 -10 -8 0 -14 5 -14 10 0 6 9 10 21
10 11 0 17 -4 14 -10z m950 -8 c-3 -3 -11 0 -18 7 -9 10 -8 11 6 5 10 -3 15
-9 12 -12z m235 3 c0 -2 -23 -14 -50 -26 -28 -12 -49 -25 -48 -28 2 -4 24 -26
50 -49 33 -31 48 -39 54 -31 4 7 2 15 -4 17 -8 2 -8 11 -1 28 5 14 9 39 9 55
0 26 3 29 33 28 23 -1 26 -3 10 -6 -21 -4 -23 -10 -23 -74 0 -39 -4 -69 -10
-69 -5 0 -11 -8 -11 -17 -1 -17 -2 -17 -6 0 -2 9 -8 17 -13 17 -4 0 -31 21
-60 47 l-52 47 -74 -38 c-41 -21 -91 -49 -110 -63 -20 -13 -39 -22 -42 -19 -9
9 18 34 43 40 13 3 26 14 30 25 5 15 22 28 69 49 5 3 6 0 3 -6 -4 -5 10 -1 30
9 21 11 43 19 49 19 7 0 14 4 16 8 6 16 108 51 108 37z m-1100 -89 c0 -2 -7
-7 -16 -10 -8 -3 -12 -2 -9 4 6 10 25 14 25 6z m-51 -44 c-6 -10 -32 -25 -57
-34 -37 -14 -42 -14 -30 -2 15 16 78 52 91 53 4 1 2 -7 -4 -17z m313 -34 c-6
-6 -15 -8 -19 -4 -4 4 -1 11 7 16 19 12 27 3 12 -12z m563 -8 c-3 -5 -11 -10
-16 -10 -6 0 -7 5 -4 10 3 6 11 10 16 10 6 0 7 -4 4 -10z m274 -39 c17 -10 21
-21 21 -60 0 -32 -5 -51 -13 -54 -11 -4 -13 6 -9 44 5 52 2 55 -53 49 -28 -3
-75 -29 -54 -30 9 0 25 -12 35 -27 9 -16 25 -33 33 -40 14 -11 12 -12 -11 -13
-16 0 -28 3 -28 8 0 4 -16 18 -35 31 l-35 24 -93 -45 c-105 -52 -137 -63 -137
-50 0 10 115 82 130 82 16 0 80 33 80 42 0 4 -1 8 -3 8 -2 0 -30 5 -63 10 -32
6 -74 13 -91 16 -18 3 -33 9 -33 13 0 13 334 5 359 -8z m9 -224 c2 -43 -1 -67
-8 -67 -14 0 -17 12 -24 83 -4 51 -3 58 12 55 14 -3 18 -17 20 -71z m-118 33
c0 -13 -30 -13 -50 0 -11 7 -7 10 18 10 17 0 32 -4 32 -10z m-100 -19 c87 -7
150 -24 150 -41 0 -4 -28 -1 -62 6 -35 8 -109 14 -164 14 -94 0 -103 -2 -118
-22 l-16 -23 9 25 c6 19 19 28 52 36 24 6 37 13 29 16 -8 3 -6 3 5 1 11 -3 63
-8 115 -12z m100 -62 c0 -5 -4 -9 -10 -9 -5 0 -10 7 -10 16 0 8 5 12 10 9 6
-3 10 -10 10 -16z m-1315 -89 c-10 -11 -23 -20 -29 -20 -6 0 0 9 14 20 32 25
38 25 15 0z m1171 -33 c12 -6 38 -21 57 -32 25 -14 34 -24 28 -33 -7 -11 -19
-8 -61 14 -60 31 -129 41 -185 25 l-40 -10 25 19 c37 28 140 39 176 17z
m-1083 -14 c-7 -2 -19 -2 -25 0 -7 3 -2 5 12 5 14 0 19 -2 13 -5z m894 -39
c-3 -3 -12 -4 -19 -1 -8 3 -5 6 6 6 11 1 17 -2 13 -5z m173 -4 c13 -9 13 -10
0 -10 -8 0 -22 5 -30 10 -13 9 -13 10 0 10 8 0 22 -5 30 -10z m200 -10 c0 -5
-2 -10 -4 -10 -3 0 -8 5 -11 10 -3 6 -1 10 4 10 6 0 11 -4 11 -10z m-1550 -40
c0 -5 -9 -10 -20 -10 -11 0 -20 5 -20 10 0 6 9 10 20 10 11 0 20 -4 20 -10z
m1175 -30 c24 -20 15 -58 -18 -71 -23 -10 -35 -9 -61 4 -36 17 -42 42 -18 70
17 19 72 18 97 -3z m-1285 -15 c0 -22 -48 -51 -62 -37 -9 9 -7 17 7 32 21 23
55 27 55 5z m1713 -28 c64 -32 107 -80 107 -121 0 -42 -25 -42 -75 0 -25 22
-69 56 -98 77 -58 42 -64 58 -27 68 30 8 22 10 93 -24z m-558 3 c-3 -5 -12
-10 -18 -10 -7 0 -6 4 3 10 19 12 23 12 15 0z m-8 -42 c-3 -8 -6 -5 -6 6 -1
11 2 17 5 13 3 -3 4 -12 1 -19z m-51 -16 c-2 -10 -7 -29 -10 -43 -4 -20 -13
-28 -35 -31 -30 -4 -61 6 -61 21 0 24 85 85 103 74 4 -2 6 -12 3 -21z m834
-132 c0 -5 -4 -10 -10 -10 -5 0 -10 5 -10 10 0 6 5 10 10 10 6 0 10 -4 10 -10z"/>
<path d="M2186 6697 c-13 -9 -17 -23 -14 -52 3 -35 6 -40 30 -43 23 -3 30 2
38 24 11 28 5 64 -14 76 -15 10 -20 10 -40 -5z"/>
<path d="M2336 6107 c-13 -9 -17 -23 -14 -52 3 -35 6 -40 30 -43 23 -3 30 2
38 24 11 28 5 64 -14 76 -15 10 -20 10 -40 -5z"/>
<path d="M4805 5160 c-4 -6 5 -10 19 -10 14 0 26 5 26 10 0 6 -9 10 -19 10
-11 0 -23 -4 -26 -10z"/>
<path d="M5087 5163 c-4 -3 -7 -17 -7 -30 0 -16 6 -23 19 -23 24 0 45 25 37
45 -5 15 -37 21 -49 8z"/>
<path d="M5395 5150 c-4 -6 5 -10 19 -10 14 0 26 5 26 10 0 6 -9 10 -19 10
-11 0 -23 -4 -26 -10z"/>
<path d="M4546 4911 c-21 -23 -18 -65 6 -69 23 -4 70 43 66 66 -5 25 -50 27
-72 3z"/>
<path d="M4711 4867 c-25 -31 36 -38 64 -7 18 20 17 20 -17 20 -20 0 -41 -6
-47 -13z"/>
<path d="M6205 1839 c-5 -7 5 -8 32 -3 51 9 54 14 10 14 -20 0 -39 -5 -42 -11z"/>
<path d="M9509 7806 c-17 -17 -521 -58 -1054 -86 -110 -6 -220 -14 -245 -17
l-45 -7 60 -7 c101 -14 887 45 1173 87 97 14 167 32 131 33 -9 1 -18 -1 -20
-3z"/>
<path d="M7087 2983 c-3 -38 -1 -75 4 -83 9 -15 12 9 14 108 1 67 -12 49 -18
-25z"/>
<path d="M8296 2986 c4 -51 3 -66 -6 -61 -7 4 -9 17 -6 31 4 14 2 24 -4 24 -5
0 -10 -15 -11 -32 -1 -31 -1 -31 -9 -8 -4 14 -6 39 -4 55 4 28 3 28 -5 5 -8
-24 -7 -39 5 -97 4 -21 7 -24 15 -12 6 9 9 10 9 2 0 -7 4 -13 10 -13 16 0 22
66 11 121 l-10 54 5 -69z"/>
<path d="M8271 3024 c0 -11 3 -14 6 -6 3 7 2 16 -1 19 -3 4 -6 -2 -5 -13z"/>
<path d="M8306 2881 c-4 -7 -5 -15 -2 -18 9 -9 19 4 14 18 -4 11 -6 11 -12 0z"/>
<path d="M7081 2834 c0 -11 3 -14 6 -6 3 7 2 16 -1 19 -3 4 -6 -2 -5 -13z"/>
<path d="M8318 2780 c-3 -16 -1 -30 4 -30 4 0 8 14 8 30 0 17 -2 30 -4 30 -2
0 -6 -13 -8 -30z"/>
<path d="M8262 2735 c0 -53 2 -62 8 -38 4 17 4 49 0 70 -6 32 -8 26 -8 -32z"/>
<path d="M8292 2775 c0 -16 2 -22 5 -12 2 9 2 23 0 30 -3 6 -5 -1 -5 -18z"/>
<path d="M8333 2655 c0 -38 2 -53 4 -32 2 20 2 52 0 70 -2 17 -4 1 -4 -38z"/>
<path d="M7032 2585 c0 -16 2 -22 5 -12 2 9 2 23 0 30 -3 6 -5 -1 -5 -18z"/>
<path d="M8341 2539 c1 -24 5 -57 10 -74 5 -19 6 -4 2 40 -6 79 -14 101 -12
34z"/>
<path d="M7016 2473 c-17 -164 -80 -547 -105 -640 -6 -23 -6 -35 2 -40 13 -8
338 -22 467 -20 47 0 63 2 35 3 -27 2 -140 8 -250 15 -110 6 -204 15 -209 20
-13 12 -29 12 -21 -1 3 -5 1 -10 -4 -10 -14 0 -14 17 -1 25 6 4 8 10 5 14 -2
5 0 23 5 42 33 112 105 659 87 659 -2 0 -7 -30 -11 -67z"/>
<path d="M7502 2370 c0 -19 2 -27 5 -17 2 9 2 25 0 35 -3 9 -5 1 -5 -18z"/>
<path d="M8362 2375 c0 -16 2 -22 5 -12 2 9 2 23 0 30 -3 6 -5 -1 -5 -18z"/>
<path d="M8291 2364 c0 -11 3 -14 6 -6 3 7 2 16 -1 19 -3 4 -6 -2 -5 -13z"/>
<path d="M8372 2220 c0 -14 2 -19 5 -12 2 6 2 18 0 25 -3 6 -5 1 -5 -13z"/>
<path d="M8327 2142 c-15 -10 -24 -22 -20 -26 4 -4 1 -11 -7 -16 -13 -8 -12
-10 3 -10 9 0 17 6 17 14 0 8 7 16 15 20 10 4 15 -1 15 -14 0 -22 20 -28 21
-7 0 6 4 3 9 -8 7 -16 9 -12 9 18 1 23 -3 36 -9 32 -5 -3 -10 -1 -10 4 0 15
-11 13 -43 -7z"/>
</g>
</svg>
